<?xml version="1.0" encoding="iso-8859-1"?>
<!-- Generator: Adobe Illustrator 19.0.0, SVG Export Plug-In . SVG Version: 6.00 Build 0)  -->
<svg version="1.1" id="Capa_1" xmlns="http://www.w3.org/2000/svg" xmlns:xlink="http://www.w3.org/1999/xlink" x="0px" y="0px"
	 viewBox="0 0 394.827 394.827" style="" xml:space="preserve">
<g>
	<path id="Stars" d="M191.245,181.992c-23.196,0-41.723-8.088-58.262-17.083c10.093-10.377,24.171-16.848,39.755-16.848
		c21.389,0,39.958,12.172,49.224,29.939C216.49,179.71,206.359,181.992,191.245,181.992 M228.26,203.585
		c0,1.425-0.111,2.819-0.216,4.214l-13.258,5.256c-13.838,5.491-35.485,5.811-52.654-5.855c-5.484-3.726-10.549-7.823-15.448-11.789
		c-7.138-5.787-14.584-11.678-23.505-16.719c1.604-3.189,3.51-6.194,5.676-8.995c17.552,9.642,37.268,18.464,62.39,18.464
		c16.515,0,27.404-2.573,33.258-4.491C226.896,189.864,228.26,196.558,228.26,203.585 M203.669,249.669
		c-12.086-4.713-45.017-6.36-61.841,0.012c-14.831-9.976-24.615-26.91-24.615-46.096c0-6.761,1.277-13.221,3.498-19.217
		c8.168,4.676,15.01,10.099,22.086,15.836c5.003,4.047,10.167,8.23,15.867,12.104c11.105,7.539,23.9,10.556,35.683,10.556
		c8.415,0,16.312-1.536,22.709-4.072l10.062-3.991C224.139,229.261,215.521,241.686,203.669,249.669 M172.736,259.108
		c-8.39,0-16.324-1.925-23.462-5.275c13.986-3.344,34.998-2.647,46.886,0.019C189.036,257.189,181.115,259.108,172.736,259.108
		 M172.736,141.892c-34.073,0-61.692,27.62-61.692,61.692s27.62,61.692,61.692,61.692c34.073,0,61.692-27.62,61.692-61.692
		S206.809,141.892,172.736,141.892 M55.521,166.569c6.817,0,12.338-5.521,12.338-12.338c0-6.817-5.521-12.338-12.338-12.338
		s-12.338,5.521-12.338,12.338S48.703,166.569,55.521,166.569 M112.192,97.832l1.962-7.607c0.16-0.537,0.629-0.95,1.228-1.098
		l7.125-1.61c1.166-0.321,1.166-1.974,0-2.295l-7.125-1.61c-0.599-0.148-1.067-0.561-1.228-1.098l-1.962-7.607
		c-0.321-1.166-1.974-1.166-2.295,0l-1.962,7.607c-0.16,0.537-0.629,0.95-1.228,1.098l-7.125,1.61c-1.166,0.321-1.166,1.974,0,2.295
		l7.125,1.61c0.599,0.148,1.067,0.561,1.228,1.098l1.962,7.607C110.218,98.998,111.87,98.998,112.192,97.832 M227.383,319.653
		l-7.125-1.61c-0.599-0.148-1.067-0.561-1.228-1.098l-1.962-7.607c-0.321-1.166-1.974-1.166-2.295,0l-1.962,7.607
		c-0.16,0.537-0.629,0.95-1.228,1.098l-7.125,1.61c-1.166,0.321-1.166,1.974,0,2.295l7.125,1.61
		c0.599,0.148,1.067,0.561,1.228,1.098l1.962,7.607c0.321,1.166,1.974,1.166,2.295,0l1.962-7.607c0.16-0.537,0.629-0.95,1.228-1.098
		l7.125-1.61C228.549,321.627,228.549,319.973,227.383,319.653 M300.539,269.145l-14.245-3.214c-1.203-0.296-2.135-1.129-2.468-2.19
		l-3.911-15.22c-0.648-2.338-3.961-2.338-4.602,0l-3.911,15.22c-0.333,1.061-1.265,1.894-2.468,2.184l-14.245,3.22
		c-2.338,0.642-2.338,3.961,0,4.602l14.251,3.22c1.197,0.29,2.135,1.123,2.462,2.184l3.911,15.22c0.648,2.338,3.961,2.338,4.602,0
		l3.911-15.22c0.333-1.061,1.265-1.894,2.468-2.184l14.245-3.22C302.878,273.106,302.878,269.787,300.539,269.145 M261.013,71.73
		l-14.245-3.214c-1.197-0.296-2.135-1.129-2.468-2.19l-3.911-15.22c-0.642-2.338-3.954-2.338-4.596,0l-3.918,15.22
		c-0.327,1.061-1.265,1.894-2.461,2.184l-14.251,3.22c-2.332,0.642-2.332,3.961,0,4.602l14.251,3.22
		c1.197,0.29,2.134,1.123,2.461,2.184l3.918,15.22c0.642,2.338,3.954,2.338,4.596,0l3.917-15.22
		c0.327-1.061,1.265-1.894,2.461-2.184l14.245-3.22C263.352,75.69,263.352,72.371,261.013,71.73 M95.202,291.527l-28.496-6.441
		c-2.394-0.586-4.269-2.246-4.929-4.38l-7.829-30.433c-1.283-4.67-7.915-4.67-9.198,0l-7.829,30.433
		c-0.654,2.128-2.529,3.794-4.923,4.38l-28.496,6.435c-4.67,1.289-4.67,7.915,0,9.198l28.496,6.441
		c2.394,0.586,4.269,2.252,4.929,4.38l7.829,30.433c1.283,4.67,7.915,4.67,9.198,0l7.829-30.433c0.654-2.128,2.529-3.794,4.923-4.38
		l28.496-6.435C99.871,299.436,99.871,292.81,95.202,291.527 M391.326,161.319l-28.496-6.434c-2.394-0.586-4.269-2.252-4.929-4.38
		l-7.829-30.433c-1.283-4.676-7.915-4.676-9.198,0l-7.829,30.433c-0.654,2.128-2.529,3.788-4.923,4.374l-28.496,6.441
		c-4.67,1.283-4.67,7.915,0,9.198l28.496,6.441c2.394,0.58,4.269,2.246,4.929,4.374l7.829,30.433c1.283,4.676,7.915,4.676,9.198,0
		l7.829-30.433c0.654-2.128,2.529-3.788,4.923-4.374l28.496-6.441C395.995,169.234,395.995,162.602,391.326,161.319"/>
</g>
<g>
</g>
<g>
</g>
<g>
</g>
<g>
</g>
<g>
</g>
<g>
</g>
<g>
</g>
<g>
</g>
<g>
</g>
<g>
</g>
<g>
</g>
<g>
</g>
<g>
</g>
<g>
</g>
<g>
</g>
</svg>
